<mxfile host="app.diagrams.net" modified="2022-03-20T21:05:19.883Z" agent="5.0 (Windows NT 10.0; Win64; x64) AppleWebKit/537.36 (KHTML, like Gecko) Chrome/99.0.4844.74 Safari/537.36" etag="sdC-lRAdi7k5QUcahILw" version="17.1.3" type="github">
  <diagram id="gueoC9wNe_M9XRxRRR1c" name="Page-1">
    <mxGraphModel dx="1422" dy="1837" grid="1" gridSize="10" guides="1" tooltips="1" connect="1" arrows="1" fold="1" page="1" pageScale="1" pageWidth="850" pageHeight="1100" background="none" math="0" shadow="1">
      <root>
        <mxCell id="0" />
        <mxCell id="1" parent="0" />
        <mxCell id="lnYRoIj6kjw9i7lZnvs6-6" style="edgeStyle=orthogonalEdgeStyle;rounded=0;orthogonalLoop=1;jettySize=auto;html=1;exitX=0;exitY=0.5;exitDx=0;exitDy=0;entryX=0;entryY=0.5;entryDx=0;entryDy=0;" parent="1" source="lnYRoIj6kjw9i7lZnvs6-5" target="lnYRoIj6kjw9i7lZnvs6-5" edge="1">
          <mxGeometry relative="1" as="geometry">
            <mxPoint x="150" y="310" as="targetPoint" />
          </mxGeometry>
        </mxCell>
        <mxCell id="lnYRoIj6kjw9i7lZnvs6-5" value="" style="rounded=0;whiteSpace=wrap;html=1;" parent="1" vertex="1">
          <mxGeometry x="160" y="-1080" width="520" height="740" as="geometry" />
        </mxCell>
        <mxCell id="lnYRoIj6kjw9i7lZnvs6-7" value="&lt;font style=&quot;font-size: 20px&quot;&gt;Welcome To The Pizza Ordering System&lt;/font&gt;" style="text;html=1;strokeColor=none;fillColor=none;align=center;verticalAlign=middle;whiteSpace=wrap;rounded=0;" parent="1" vertex="1">
          <mxGeometry x="230" y="-1060" width="360" height="50" as="geometry" />
        </mxCell>
        <mxCell id="VSrRtWQjUN6wTLF_jSkn-3" value="&lt;font style=&quot;text-align: center ; font-size: 20px&quot;&gt;&lt;br&gt;Regular size $8.50&lt;/font&gt;&lt;span style=&quot;text-align: center&quot;&gt;&lt;br&gt;.&lt;/span&gt;&lt;font style=&quot;text-align: center ; font-size: 13px&quot;&gt;&lt;span style=&quot;font-size: 14px&quot;&gt;pepperoni pizza&amp;nbsp;&lt;/span&gt;&lt;br&gt;&lt;span style=&quot;font-size: 14px&quot;&gt;.Cheese pizza&lt;/span&gt;&lt;br&gt;&lt;span style=&quot;font-size: 14px&quot;&gt;.&lt;/span&gt;&lt;span style=&quot;color: rgb(32 , 33 , 36) ; font-family: &amp;#34;arial&amp;#34; , sans-serif ; text-align: left ; background-color: rgb(255 , 255 , 255)&quot;&gt;Hawaiian pizza&lt;br&gt;.&lt;/span&gt;&lt;span style=&quot;color: rgb(32 , 33 , 36) ; font-family: &amp;#34;arial&amp;#34; , sans-serif ; text-align: left ; background-color: rgb(255 , 255 , 255)&quot;&gt;BBQ pizza&lt;br&gt;&lt;/span&gt;&lt;span style=&quot;font-size: 14px ; color: rgb(32 , 33 , 36) ; font-family: &amp;#34;arial&amp;#34; , sans-serif ; text-align: left ; background-color: rgb(255 , 255 , 255)&quot;&gt;.Sausage pizza&lt;br&gt;.chicken pizza&lt;br&gt;.Cheesy garlic pizza&lt;br&gt;&lt;/span&gt;&lt;/font&gt;" style="text;html=1;strokeColor=none;fillColor=none;spacing=5;spacingTop=-20;whiteSpace=wrap;overflow=hidden;rounded=0;" parent="1" vertex="1">
          <mxGeometry x="230" y="-970" width="190" height="160" as="geometry" />
        </mxCell>
        <mxCell id="VSrRtWQjUN6wTLF_jSkn-5" value="&lt;h1&gt;&lt;span style=&quot;font-weight: normal&quot;&gt;Gourmet $13.50&amp;nbsp;&lt;/span&gt;&lt;/h1&gt;&lt;div&gt;&lt;span style=&quot;font-weight: normal&quot;&gt;.Mushroom pizza&lt;/span&gt;&lt;/div&gt;&lt;div&gt;&lt;span style=&quot;font-weight: normal&quot;&gt;.Pepper pizza&lt;/span&gt;&lt;/div&gt;&lt;div&gt;&lt;span style=&quot;font-weight: normal&quot;&gt;.Margherita pizza&lt;/span&gt;&lt;/div&gt;&lt;div&gt;&lt;span style=&quot;font-weight: normal&quot;&gt;.Black olives pizza&lt;/span&gt;&lt;/div&gt;&lt;div&gt;&lt;span style=&quot;font-weight: normal&quot;&gt;.spinach pizza&lt;/span&gt;&lt;/div&gt;&lt;div&gt;&lt;span style=&quot;font-weight: normal&quot;&gt;.&lt;/span&gt;&lt;/div&gt;&lt;div&gt;&lt;span style=&quot;font-weight: normal&quot;&gt;.&lt;/span&gt;&lt;/div&gt;&lt;div&gt;&lt;span style=&quot;font-weight: normal&quot;&gt;&lt;br&gt;&lt;/span&gt;&lt;/div&gt;" style="text;html=1;strokeColor=none;fillColor=none;spacing=5;spacingTop=-20;whiteSpace=wrap;overflow=hidden;rounded=0;" parent="1" vertex="1">
          <mxGeometry x="420" y="-970" width="190" height="150" as="geometry" />
        </mxCell>
        <mxCell id="DWWqZnEPcMVHGfQEezVX-14" value="&lt;font style=&quot;font-size: 16px&quot;&gt;Ordering list&lt;/font&gt;" style="text;html=1;strokeColor=none;fillColor=none;align=center;verticalAlign=middle;whiteSpace=wrap;rounded=0;" vertex="1" parent="1">
          <mxGeometry x="230" y="-780" width="140" height="30" as="geometry" />
        </mxCell>
      </root>
    </mxGraphModel>
  </diagram>
</mxfile>
